<svg width="124" height="40" viewBox="0 0 124 40" fill="none" xmlns="http://www.w3.org/2000/svg">
<path d="M56.976 18.8941V16.322H65.5855C65.6734 16.7753 65.7252 17.3148 65.7252 17.8989C65.7252 19.8281 65.1968 22.2164 63.4981 23.9161C61.8446 25.6386 59.7326 26.557 56.9315 26.557C51.7423 26.557 47.3801 22.3311 47.3801 17.1408C47.3801 11.9505 51.7423 7.72461 56.9315 7.72461C59.8014 7.72461 61.8446 8.85018 63.3834 10.32L61.5692 12.1345C60.4669 11.1009 58.9748 10.2972 56.9315 10.2972C53.1432 10.2972 50.1811 13.3516 50.1811 17.1413C50.1811 20.931 53.1432 23.9853 56.9315 23.9853C59.3884 23.9853 60.789 22.9977 61.6839 22.1021C62.4138 21.3724 62.894 20.3255 63.0808 18.8946L56.976 18.8941Z" fill="white"/>
<path d="M78.8447 20.4943C78.8447 23.9853 76.1124 26.5574 72.7602 26.5574C69.408 26.5574 66.6756 23.9853 66.6756 20.4943C66.6756 16.9805 69.408 14.4311 72.7602 14.4311C76.1128 14.4311 78.8447 16.98 78.8447 20.4943ZM76.1815 20.4943C76.1815 18.3123 74.5975 16.8198 72.7606 16.8198C70.9239 16.8198 69.3392 18.3123 69.3392 20.4943C69.3392 22.653 70.9232 24.1688 72.7606 24.1688C74.5975 24.1688 76.1815 22.653 76.1815 20.4943Z" fill="white"/>
<path d="M92.118 20.4943C92.118 23.9853 89.3857 26.5574 86.0334 26.5574C82.6812 26.5574 79.9489 23.9853 79.9489 20.4943C79.9489 16.9805 82.6812 14.4311 86.0334 14.4311C89.386 14.4311 92.118 16.98 92.118 20.4943ZM89.4548 20.4943C89.4548 18.3123 87.8708 16.8198 86.0338 16.8198C84.1972 16.8198 82.6124 18.3123 82.6124 20.4943C82.6124 22.653 84.1968 24.1688 86.0338 24.1688C87.8708 24.1688 89.4548 22.653 89.4548 20.4943Z" fill="white"/>
<path d="M104.841 14.7981V25.6841C104.841 30.1627 102.2 32 99.0776 32C96.1387 32 94.3712 30.0248 93.7049 28.4174L96.024 27.4526C96.4373 28.4402 97.4473 29.6113 99.0776 29.6113C101.075 29.6113 102.315 28.371 102.315 26.0515V25.1787H102.223C101.626 25.9136 100.478 26.5565 99.0317 26.5565C96.0008 26.5565 93.2225 23.9156 93.2225 20.5166C93.2225 17.0943 96.0008 14.4307 99.0317 14.4307C100.478 14.4307 101.626 15.0736 102.223 15.7857H102.315V14.7981H104.841ZM102.499 20.5171C102.499 18.3811 101.075 16.8193 99.2611 16.8193C97.4245 16.8193 95.8857 18.3811 95.8857 20.5171C95.8857 22.6298 97.4241 24.1688 99.2611 24.1688C101.075 24.1688 102.499 22.6298 102.499 20.5171Z" fill="white"/>
<path d="M109.352 8.42768V26.19H106.688V8.42768H109.352Z" fill="white"/>
<path d="M119.637 22.4918L121.703 23.8696C121.037 24.8572 119.43 26.5565 116.652 26.5565C113.208 26.5565 110.636 23.8924 110.636 20.4933C110.636 16.8876 113.23 14.4302 116.353 14.4302C119.499 14.4302 121.037 16.9336 121.542 18.2886L121.818 18.9775L113.712 22.3306C114.333 23.5477 115.297 24.1678 116.652 24.1678C118.006 24.1688 118.948 23.5026 119.637 22.4918ZM113.276 20.3103L118.695 18.0596C118.396 17.302 117.501 16.7738 116.444 16.7738C115.09 16.7733 113.208 17.9676 113.276 20.3103Z" fill="white"/>
<path fill-rule="evenodd" clip-rule="evenodd" d="M12.25 30.7462H22.1191H27.5022C28.9826 30.7462 30.1938 29.5247 30.1938 28.0317V23.3212V23.3163C30.1938 23.3212 22.3645 17.1338 22.3645 17.1338V22.4963L12.25 22.4963L12.25 30.7462Z" fill="white" fill-opacity="0.4"/>
<path d="M4 22.4963V27.9962C4 29.5088 5.2375 30.7463 6.75001 30.7463H12.25V22.4963H4Z" fill="white" fill-opacity="0.2"/>
<path d="M12.25 3.52126L4 11.7713H12.25V3.52126Z" fill="white" fill-opacity="0.1"/>
<path fill-rule="evenodd" clip-rule="evenodd" d="M35.2735 27.4046L30.1937 23.3163V10.5338V10.4923L35.2962 6.45036C35.9777 5.87847 37 6.35886 37 7.25102V26.6039C37 27.4961 35.955 27.9765 35.2735 27.4046Z" fill="white" fill-opacity="0.4"/>
<path d="M30.1938 10.5338V23.3213L22.3563 17.1338L30.1938 10.5338Z" fill="white" fill-opacity="0.2"/>
<path fill-rule="evenodd" clip-rule="evenodd" d="M12.25 3.52126V11.7713H22.3562L22.3645 17.1338L30.1937 10.5338V6.23972C30.1937 4.74457 28.9826 3.52126 27.5022 3.52126H22.1191H12.25Z" fill="white" fill-opacity="0.7"/>
<path d="M4 11.7713H12.25V22.4963H4V11.7713Z" fill="white" fill-opacity="0.3"/>
</svg>